<?xml version="1.0" encoding="UTF-8"?>
<svg>
    <g transform="translate(20,20)">
        <defs>
            <style type="text/css"><![CDATA[
                .links polyline {
                    stroke: #999;
                    stroke-opacity: 0.6;
                }

                .nodes circle {
                    stroke: #000;
                    stroke-width: 0.5px;
                }

                .box {
                    outline: 3px solid black;
                }
            ]]></style>
            <marker id="mid" viewBox="0 -5 10 10" markerWidth="10" markerHeight="10" orient="auto">
                <path d="M0,-5 L10,0 L0,5" />
            </marker>
        </defs>
        <g class="links">
            <g class="edge">
                <polyline stroke-width="1" marker-mid="url(#mid)" x1="287.47435329657617" y1="426.0163683114278" x2="306.17246781104586" y2="397.01689419539855" points="287.47435329657617,426.0163683114278 294.01869337664056,415.86655237081754 306.17246781104586,397.01689419539855" />
                <polyline stroke-width="1" x1="306.17246781104586" y1="397.01689419539855" x2="281.5139723798507" y2="374.10741440203816" points="306.17246781104586,397.01689419539855 297.5419944101276,388.9985762677224 281.5139723798507,374.10741440203816" />
            </g>
            <g class="edge">
                <polyline stroke-width="1" marker-mid="url(#mid)" x1="270.0578153186388" y1="455.9791470964117" x2="287.47435329657617" y2="426.0163683114278" points="270.0578153186388,455.9791470964117 276.1536036109169,445.4921745216674 287.47435329657617,426.0163683114278" />
                <polyline stroke-width="1" x1="270.0578153186388" y1="455.9791470964117" x2="245.2803335956621" y2="433.7359004797679" points="270.0578153186388,455.9791470964117 261.38569671559696,448.1940107805864 245.2803335956621,433.7359004797679" />
            </g>
            <g class="edge">
                <polyline stroke-width="1" marker-mid="url(#mid)" x1="239.77774424584985" y1="377.8019193571567" x2="260.2919138851097" y2="402.395544280626" points="239.77774424584985,377.8019193571567 246.9577036195908,386.409688080371 260.2919138851097,402.395544280626" />
                <polyline stroke-width="1" x1="260.2919138851097" y1="402.395544280626" x2="281.5139723798507" y2="374.10741440203816" points="260.2919138851097,402.395544280626 267.71963435826905,392.49469882312025 281.5139723798507,374.10741440203816" />
                <polyline stroke-width="1" x1="260.2919138851097" y1="402.395544280626" x2="287.47435329657617" y2="426.0163683114278" points="260.2919138851097,402.395544280626 269.80576767912294,410.6628326914066 287.47435329657617,426.0163683114278" />
                <polyline stroke-width="1" x1="260.2919138851097" y1="402.395544280626" x2="245.2803335956621" y2="433.7359004797679" points="260.2919138851097,402.395544280626 255.03786078380307,413.36466895032567 245.2803335956621,433.7359004797679" />
            </g>
            <g class="edge">
                <polyline stroke-width="1" marker-mid="url(#mid)" x1="428.0542271160019" y1="337.73809850372487" x2="404.9823094584717" y2="363.4346875627945" points="428.0542271160019,337.73809850372487 419.9790559358663,346.7319046743993 404.9823094584717,363.4346875627945" />
                <polyline stroke-width="1" x1="404.9823094584717" y1="363.4346875627945" x2="374.86386819473245" y2="375.0689415937573" points="404.9823094584717,363.4346875627945 394.4408550161629,367.5066764736315 374.86386819473245,375.0689415937573" />
                <polyline stroke-width="1" x1="404.9823094584717" y1="363.4346875627945" x2="408.379712829079" y2="394.9891115582096" points="404.9823094584717,363.4346875627945 406.17140063818425,374.4787359611898 408.379712829079,394.9891115582096" />
            </g>
        </g>
        <g class="nodes">
            <circle fill="#1f77b4" cx="404.9823094584717" cy="363.4346875627945" r="0">
                <title />
            </circle>
            <circle fill="#1f77b4" cx="281.5139723798507" cy="374.10741440203816" r="10">
                <title>y</title>
            </circle>
            <circle fill="#1f77b4" cx="408.379712829079" cy="394.9891115582096" r="10">
                <title>z</title>
            </circle>
            <circle fill="#1f77b4" cx="245.2803335956621" cy="433.7359004797679" r="10">
                <title />
            </circle>
            <circle fill="#1f77b4" cx="270.0578153186388" cy="455.9791470964117" r="0">
                <title />
            </circle>
            <circle fill="#1f77b4" cx="287.47435329657617" cy="426.0163683114278" r="10">
                <title>z</title>
            </circle>
            <circle fill="#1f77b4" cx="428.0542271160019" cy="337.73809850372487" r="10">
                <title>x</title>
            </circle>
            <circle fill="#1f77b4" cx="260.2919138851097" cy="402.395544280626" r="0">
                <title />
            </circle>
            <circle fill="#1f77b4" cx="239.77774424584985" cy="377.8019193571567" r="10">
                <title>x</title>
            </circle>
            <circle fill="#1f77b4" cx="374.86386819473245" cy="375.0689415937573" r="10">
                <title>y</title>
            </circle>
            <circle fill="#1f77b4" cx="306.17246781104586" cy="397.01689419539855" r="0">
                <title />
            </circle>
        </g>
        <g class="boxes">
            <g class="box">
                <g class="nodes">
                    <circle fill="#1f77b4" cx="365.6696359175203" cy="277.5534551733328" r="0">
                        <title />
                    </circle>
                    <circle fill="#1f77b4" cx="400.2724544488323" cy="276.71874358477925" r="10">
                        <title />
                    </circle>
                    <circle fill="#1f77b4" cx="417.18845917510987" cy="305.7784926067271" r="0">
                        <title />
                    </circle>
                    <circle fill="#1f77b4" cx="381.75570477493636" cy="306.3570742648614" r="10">
                        <title />
                    </circle>
                </g>
                <g class="links">
                    <g class="edge">
                        <polyline stroke-width="1" marker-mid="url(#mid)" x1="417.18845917510987" y1="305.7784926067271" x2="428.0542271160019" y2="337.73809850372487" points="417.18845917510987,305.7784926067271 420.99147795442207,316.96435467067636 428.0542271160019,337.73809850372487" />
                        <polyline stroke-width="1" x1="417.18845917510987" y1="305.7784926067271" x2="381.75570477493636" y2="306.3570742648614" points="417.18845917510987,305.7784926067271 404.7869951350491,305.98099618707414 381.75570477493636,306.3570742648614" />
                        <polyline stroke-width="1" x1="417.18845917510987" y1="305.7784926067271" x2="400.2724544488323" y2="276.71874358477925" points="417.18845917510987,305.7784926067271 411.2678575209127,295.6075804490454 400.2724544488323,276.71874358477925" />
                    </g>
                    <g class="edge">
                        <polyline stroke-width="1" marker-mid="url(#mid)" x1="381.75570477493636" y1="306.3570742648614" x2="365.6696359175203" y2="277.5534551733328" points="381.75570477493636,306.3570742648614 376.1255806748407,296.2758075828264 365.6696359175203,277.5534551733328" />
                        <polyline stroke-width="1" x1="365.6696359175203" y1="277.5534551733328" x2="400.2724544488323" y2="276.71874358477925" points="365.6696359175203,277.5534551733328 377.78062240347947,277.261306117339 400.2724544488323,276.71874358477925" />
                    </g>
                </g>
            </g>
            <g class="box">
                <g class="nodes">
                    <circle fill="#1f77b4" cx="483.09531636334106" cy="514.0934739002118" r="0">
                        <title />
                    </circle>
                    <circle fill="#1f77b4" cx="480.68702809213363" cy="545.7257118168652" r="10">
                        <title>z</title>
                    </circle>
                    <circle fill="#1f77b4" cx="452.0168078531257" cy="521.7877225691923" r="10">
                        <title>y</title>
                    </circle>
                </g>
                <g class="links">
                    <g class="edge">
                        <polyline stroke-width="1" marker-mid="url(#mid)" x1="483.09531636334106" y1="514.0934739002118" x2="474.94358791297486" y2="481.4005857031171" points="483.09531636334106,514.0934739002118 480.2422114057129,502.6509630312287 474.94358791297486,481.4005857031171" />
                        <polyline stroke-width="1" x1="483.09531636334106" y1="514.0934739002118" x2="480.68702809213363" y2="545.7257118168652" points="483.09531636334106,514.0934739002118 482.25241546841846,525.1647571710405 480.68702809213363,545.7257118168652" />
                        <polyline stroke-width="1" x1="483.09531636334106" y1="514.0934739002118" x2="452.0168078531257" y2="521.7877225691923" points="483.09531636334106,514.0934739002118 472.21783838476574,516.786460934355 452.0168078531257,521.7877225691923" />
                    </g>
                </g>
            </g>
            <g class="box">
                <g class="nodes">
                    <circle fill="#1f77b4" cx="508.96248560609604" cy="437.3210157650402" r="10">
                        <title />
                    </circle>
                    <circle fill="#1f77b4" cx="512.3169866323174" cy="403.84025875928023" r="0">
                        <title />
                    </circle>
                    <circle fill="#1f77b4" cx="476.0723421725314" cy="447.6914441962271" r="0">
                        <title />
                    </circle>
                    <circle fill="#1f77b4" cx="479.9911471951851" cy="414.28450603178203" r="10">
                        <title />
                    </circle>
                </g>
                <g class="links">
                    <g class="edge">
                        <polyline stroke-width="1" marker-mid="url(#mid)" x1="474.94358791297486" y1="481.4005857031171" x2="476.0723421725314" y2="447.6914441962271" points="474.94358791297486,481.4005857031171 475.33865190381965,469.60238617570553 476.0723421725314,447.6914441962271" />
                        <polyline stroke-width="1" x1="476.0723421725314" y1="447.6914441962271" x2="479.9911471951851" y2="414.28450603178203" points="476.0723421725314,447.6914441962271 477.4439239304602,435.9990158386713 479.9911471951851,414.28450603178203" />
                        <polyline stroke-width="1" x1="476.0723421725314" y1="447.6914441962271" x2="508.96248560609604" y2="437.3210157650402" points="476.0723421725314,447.6914441962271 487.583892374279,444.0617942453117 508.96248560609604,437.3210157650402" />
                    </g>
                    <g class="edge">
                        <polyline stroke-width="1" marker-mid="url(#mid)" x1="512.3169866323174" y1="403.84025875928023" x2="514.2893479681286" y2="372.073381761431" points="512.3169866323174,403.84025875928023 513.0073130998513,392.72185181003306 514.2893479681286,372.073381761431" />
                        <polyline stroke-width="1" x1="512.3169866323174" y1="403.84025875928023" x2="508.96248560609604" y2="437.3210157650402" points="512.3169866323174,403.84025875928023 511.14291127313993,415.5585237112963 508.96248560609604,437.3210157650402" />
                        <polyline stroke-width="1" x1="512.3169866323174" y1="403.84025875928023" x2="479.9911471951851" y2="414.28450603178203" points="512.3169866323174,403.84025875928023 501.00294282932106,407.4957453046559 479.9911471951851,414.28450603178203" />
                    </g>
                </g>
            </g>
            <g class="box">
                <g class="nodes">
                    <circle fill="#1f77b4" cx="365.0118413411926" cy="486.97155714420785" r="0">
                        <title />
                    </circle>
                    <circle fill="#1f77b4" cx="333.5207819895588" cy="501.890986524358" r="10">
                        <title />
                    </circle>
                    <circle fill="#1f77b4" cx="385.08433496151594" cy="515.3846712718121" r="10">
                        <title />
                    </circle>
                    <circle fill="#1f77b4" cx="380.2514665753417" cy="550.2456240996169" r="0">
                        <title />
                    </circle>
                    <circle fill="#1f77b4" cx="347.19227965009065" cy="559.9605762561956" r="10">
                        <title />
                    </circle>
                    <circle fill="#1f77b4" cx="323.25069756840855" cy="535.1653636155197" r="0">
                        <title />
                    </circle>
                </g>
                <g class="links">
                    <g class="edge">
                        <polyline stroke-width="1" marker-mid="url(#mid)" x1="385.08433496151594" y1="515.3846712718121" x2="380.2514665753417" y2="550.2456240996169" points="385.08433496151594,515.3846712718121 383.39283102635494,527.5860047615438 380.2514665753417,550.2456240996169" />
                        <polyline stroke-width="1" x1="380.2514665753417" y1="550.2456240996169" x2="347.19227965009065" y2="559.9605762561956" points="380.2514665753417,550.2456240996169 368.68075115150384,553.6458573544194 347.19227965009065,559.9605762561956" />
                    </g>
                    <g class="edge">
                        <polyline stroke-width="1" marker-mid="url(#mid)" x1="365.0118413411926" y1="486.97155714420785" x2="385.08433496151594" y2="515.3846712718121" points="365.0118413411926,486.97155714420785 372.03721410830576,496.9161470888693 385.08433496151594,515.3846712718121" />
                        <polyline stroke-width="1" x1="365.0118413411926" y1="486.97155714420785" x2="333.5207819895588" y2="501.890986524358" points="365.0118413411926,486.97155714420785 353.9899705681208,492.19335742726037 333.5207819895588,501.890986524358" />
                    </g>
                    <g class="edge">
                        <polyline stroke-width="1" marker-mid="url(#mid)" x1="291.4968427972651" y1="537.6897468205153" x2="323.25069756840855" y2="535.1653636155197" points="291.4968427972651,537.6897468205153 302.61069196716534,536.8062126987669 323.25069756840855,535.1653636155197" />
                        <polyline stroke-width="1" x1="323.25069756840855" y1="535.1653636155197" x2="347.19227965009065" y2="559.9605762561956" points="323.25069756840855,535.1653636155197 331.63025129699724,543.8436880397562 347.19227965009065,559.9605762561956" />
                        <polyline stroke-width="1" x1="323.25069756840855" y1="535.1653636155197" x2="333.5207819895588" y2="501.890986524358" points="323.25069756840855,535.1653636155197 326.84522711581116,523.5193316336131 333.5207819895588,501.890986524358" />
                    </g>
                </g>
            </g>
        </g>
        <g class="nodes" />
        <g class="nodes">
            <circle fill="#1f77b4" cx="474.94358791297486" cy="481.4005857031171" r="10">
                <title />
            </circle>
        </g>
        <g class="nodes">
            <circle fill="#1f77b4" cx="514.2893479681286" cy="372.073381761431" r="10">
                <title>x</title>
            </circle>
        </g>
        <g class="nodes">
            <circle fill="#1f77b4" cx="291.4968427972651" cy="537.6897468205153" r="10">
                <title>x</title>
            </circle>
        </g>
    </g>
</svg>
